<?xml version="1.0" standalone="no"?>
<!DOCTYPE svg PUBLIC "-//W3C//DTD SVG 20010904//EN"
 "http://www.w3.org/TR/2001/REC-SVG-20010904/DTD/svg10.dtd">
<svg version="1.0" xmlns="http://www.w3.org/2000/svg"
 width="260.000000pt" height="260.000000pt" viewBox="0 0 260.000000 260.000000"
 preserveAspectRatio="xMidYMid meet">
<metadata>
Created by potrace 1.11, written by Peter Selinger 2001-2013
</metadata>
<g transform="translate(0.000000,260.000000) scale(0.100000,-0.100000)"
fill="#000000" stroke="none">
<path d="M2481 2289 c-146 -131 -503 -233 -921 -264 l-85 -6 35 32 c19 18 63
59 98 91 l63 58 -103 0 c-253 0 -578 -62 -863 -165 -174 -62 -422 -186 -575
-286 l-125 -82 120 -24 c268 -53 500 -160 696 -319 l66 -54 225 60 c238 63
327 92 528 172 441 176 674 348 809 599 45 83 93 205 89 224 -2 8 -26 -8 -57
-36z"/>
<path d="M2130 1403 c-243 -12 -588 -59 -825 -114 -134 -30 -323 -83 -332 -93
-3 -3 19 -33 50 -68 63 -73 156 -207 192 -279 14 -27 27 -49 29 -49 2 0 80 41
173 91 473 256 836 418 1076 479 94 24 104 28 76 34 -30 6 -306 5 -439 -1z"/>
<path d="M1725 869 c-231 -99 -421 -182 -424 -185 -2 -2 10 -50 27 -106 18
-57 39 -149 49 -205 10 -57 20 -103 24 -103 3 0 140 138 305 308 434 446 458
472 448 472 -5 -1 -198 -82 -429 -181z"/>
<path d="M1642 348 c-30 -30 0 -75 42 -64 29 7 40 31 26 57 -12 21 -50 25 -68
7z"/>
</g>
</svg>
